<svg width="24" height="24" viewBox="0 0 24 24" fill="none" xmlns="http://www.w3.org/2000/svg">
<path d="M6.07905 9.72623C6.42321 6.76135 8.94297 4.461 12 4.461C13.6114 4.461 15.0734 5.10033 16.1462 6.13917C16.4193 6.40362 16.3956 6.83664 16.1268 7.10546C15.8122 7.42005 15.2946 7.38172 14.962 7.0862C14.1742 6.38618 13.1368 5.961 12 5.961C9.53603 5.961 7.539 7.9574 7.539 10.421C7.539 10.6199 7.45998 10.8107 7.31933 10.9513C7.17868 11.092 6.98791 11.171 6.789 11.171C5.11134 11.171 3.75 12.5321 3.75 14.211C3.75 15.2181 4.2399 16.1106 4.99421 16.6636C5.41589 16.9727 5.59473 17.6375 5.22502 18.0072C5.02673 18.2055 4.7233 18.2635 4.48192 18.1207C3.14614 17.3308 2.25 15.8757 2.25 14.211C2.25 11.9455 3.9098 10.0672 6.07905 9.72623Z" fill="black"/>
<path d="M18.5902 10.2989C18.7748 10.1143 19.0538 10.0537 19.2859 10.1732C20.749 10.9268 21.75 12.4523 21.75 14.211C21.75 16.7173 19.7171 18.75 17.21 18.75H11.9497C11.2816 18.75 10.9469 17.9421 11.4194 17.4697C11.5601 17.329 11.7508 17.25 11.9497 17.25H17.21C18.8889 17.25 20.25 15.8887 20.25 14.211C20.25 13.1462 19.7017 12.2089 18.8722 11.6661C18.4252 11.3736 18.2124 10.6767 18.5902 10.2989Z" fill="black"/>
<path d="M20.0607 7.06066C20.3536 6.76777 20.3536 6.29289 20.0607 6C19.7678 5.70711 19.2929 5.70711 19 6L5 20C4.70711 20.2929 4.70711 20.7678 5 21.0607C5.2929 21.3536 5.76777 21.3536 6.06066 21.0607L20.0607 7.06066Z" fill="black"/>
</svg>
