<svg width="24" height="24" viewBox="0 0 24 24" fill="none" xmlns="http://www.w3.org/2000/svg">
<path fill-rule="evenodd" clip-rule="evenodd" d="M6.07905 9.72623C6.42321 6.76135 8.94297 4.461 12 4.461C15.0572 4.461 17.5768 6.76237 17.9209 9.72724C20.0901 10.0682 21.75 11.9463 21.75 14.211C21.75 16.7173 19.7171 18.75 17.21 18.75H6.789C4.28292 18.75 2.25 16.7183 2.25 14.211C2.25 11.9455 3.9098 10.0672 6.07905 9.72623ZM12 5.961C9.53603 5.961 7.539 7.9574 7.539 10.421C7.539 10.6199 7.45998 10.8107 7.31933 10.9513C7.17868 11.092 6.98791 11.171 6.789 11.171C5.11134 11.171 3.75 12.5321 3.75 14.211C3.75 15.8897 5.11108 17.25 6.789 17.25H17.21C18.8889 17.25 20.25 15.8887 20.25 14.211C20.25 12.5332 18.8888 11.172 17.211 11.172C16.7968 11.172 16.461 10.8362 16.461 10.422C16.461 7.95821 14.4638 5.961 12 5.961Z" fill="black"/>
</svg>
